<?xml version="1.0" standalone="no"?><!DOCTYPE svg PUBLIC "-//W3C//DTD SVG 1.1//EN" "http://www.w3.org/Graphics/SVG/1.1/DTD/svg11.dtd"><svg t="1588592877567" class="icon" viewBox="0 0 1024 1024" version="1.1" xmlns="http://www.w3.org/2000/svg" p-id="4276" xmlns:xlink="http://www.w3.org/1999/xlink" width="32" height="32"><defs><style type="text/css"></style></defs><path d="M893.44 325.818182H291.607273a46.545455 46.545455 0 0 1-46.545455-38.167273l-16.058182-91.229091a46.545455 46.545455 0 0 0-46.545454-38.167273H103.563636a33.745455 33.745455 0 0 0 0 67.258182h39.098182l97.978182 486.632728a46.545455 46.545455 0 0 0 16.523636 26.996363 116.363636 116.363636 0 0 1 232.727273 10.472727h116.363636a116.363636 116.363636 0 0 1 232.727273-11.86909 44.916364 44.916364 0 0 0 14.196364-23.272728l87.272727-330.24A46.545455 46.545455 0 0 0 893.44 325.818182z" fill="#73B4FF" p-id="4277"></path><path d="M257.163636 739.141818v10.472727a116.363636 116.363636 0 0 0 232.727273 0H286.254545a46.545455 46.545455 0 0 1-29.090909-10.472727z" fill="#87D3FF" p-id="4278"></path><path d="M372.363636 633.250909a116.363636 116.363636 0 0 0-116.363636 105.890909 46.545455 46.545455 0 0 0 29.090909 10.472727H488.727273a116.363636 116.363636 0 0 0-116.363637-116.363636z" fill="#73B4FF" p-id="4279"></path><path d="M372.363636 633.250909a116.363636 116.363636 0 0 0-116.363636 105.890909 46.545455 46.545455 0 0 0 29.090909 10.472727H488.727273a116.363636 116.363636 0 0 0-116.363637-116.363636z" fill="#1474E4" p-id="4280"></path><path d="M605.090909 749.614545a116.363636 116.363636 0 0 0 232.727273 0v-11.86909a46.545455 46.545455 0 0 1-30.72 11.86909z" fill="#87D3FF" p-id="4281"></path><path d="M721.454545 633.250909a116.363636 116.363636 0 0 0-116.363636 116.363636h200.843636A46.545455 46.545455 0 0 0 837.818182 737.745455a116.363636 116.363636 0 0 0-116.363637-104.494546z" fill="#73B4FF" p-id="4282"></path><path d="M721.454545 633.250909a116.363636 116.363636 0 0 0-116.363636 116.363636h200.843636A46.545455 46.545455 0 0 0 837.818182 737.745455a116.363636 116.363636 0 0 0-116.363637-104.494546z" fill="#1474E4" p-id="4283"></path></svg>