<?xml version="1.0" standalone="no"?><!DOCTYPE svg PUBLIC "-//W3C//DTD SVG 1.1//EN" "http://www.w3.org/Graphics/SVG/1.1/DTD/svg11.dtd"><svg t="1588592970472" class="icon" viewBox="0 0 1032 1024" version="1.1" xmlns="http://www.w3.org/2000/svg" p-id="6229" xmlns:xlink="http://www.w3.org/1999/xlink" width="32.25" height="32"><defs><style type="text/css"></style></defs><path d="M697.589 948.2255c-125.4735 0-227.4975-101.961-227.4975-227.493 0-125.568 101.9835-227.5155 227.4975-227.5155 125.5275 0 227.511 101.943 227.511 227.5155 0 125.532-101.9835 227.493-227.511 227.493z" fill="#6799FF" p-id="6230"></path><path d="M479.9915 513.2735c-28.278 0-56.5785-4.7115-83.3445-15.7095-56.5785-22.014-99.0765-64.476-124.2135-119.52-25.1775-54.99-25.1775-116.3385-3.1635-172.9395C291.3245 148.508 333.746 106.0505 388.772 80.891 443.78 58.877 679.6565 52.5905 709.55 87.1955c15.6555 17.262 12.5505 51.885-7.9155 141.516-1.5705 4.6755-1.5705 9.4275-3.141 10.998-1.5345 10.998-3.123 20.4435-4.6755 29.8305-14.157 97.506-28.3185 182.403-124.2315 224.883-28.26 12.564-58.1355 18.8505-89.595 18.8505z m67.635-402.5115c-56.5785 0-114.768 4.6755-138.393 14.139-43.9875 18.8505-77.04 53.4375-94.3065 97.488-17.3025 44.028-15.732 91.2015 3.1635 135.2295 18.837 44.028 53.4195 77.0445 97.4655 94.3425 43.992 17.28 92.772 17.28 135.234-1.5705 72.3465-31.464 81.756-94.3425 95.931-188.6895 1.593-9.4275 3.141-20.484 4.6935-31.4415 0-1.5525 1.5525-6.3045 3.141-14.157 15.732-61.3125 17.3025-86.4675 17.3025-97.488-18.909-4.7115-70.794-7.8525-124.2315-7.8525zM483.155 961.3835c-94.3425 0-182.403-10.9935-248.445-31.437-102.1995-31.4415-124.2135-75.4695-124.2135-108.4815 0-138.3975 106.875-257.859 265.707-297.1935 6.282-1.5525 11.016 0 15.732 3.141 42.399 33.0525 99.0765 39.3165 149.3685 18.891 10.998-4.752 22.0185-11.0565 31.4595-18.891 4.653-3.141 10.998-4.6935 15.6915-3.141 155.637 39.3345 265.7115 160.407 265.7115 297.1935 0.0585 103.743-199.6245 139.9185-371.0115 139.9185z m-106.9335-396.225c-133.659 36.1575-227.9655 141.516-227.9655 256.3065 0 56.556 146.2095 100.6065 333.324 100.6065 187.0965 0 333.324-44.01 333.324-100.6065 0-116.3565-92.7675-220.149-228.024-256.3065-10.9935 7.857-20.421 12.591-31.419 17.2845-58.149 26.748-125.766 18.873-179.2395-17.2845z" fill="#073A77" p-id="6231"></path><path d="M467.423 403.217c-12.5685 0-23.5845-10.998-23.5845-23.607 0-12.5685 9.4455-23.607 23.5845-23.607 3.141 0 33.03-1.53 50.3145-25.1775 15.732-20.4255 14.1615-43.992 12.5865-50.2965-1.5705-12.5865 6.282-25.155 20.4435-26.7075 12.5685-1.5525 25.1595 6.3045 26.712 18.873 1.593 10.998 6.3 51.885-22.0185 88.038-31.419 39.3435-78.6105 42.4845-88.038 42.4845z m86.4855 342.7335h-163.53c-11.016 0-18.873-7.875-18.873-18.873 0-56.5785 45.621-102.2175 100.6065-102.2175 55.0485 0 100.6875 45.639 100.6875 102.2175-0.036 9.486-7.8885 18.873-18.891 18.873z m-141.5115-37.71h121.095c-7.9155-26.7075-31.464-45.639-59.8005-45.639-28.26 0.045-53.442 18.936-61.2945 45.639z" fill="#073A77" p-id="6232"></path></svg>